HIERARCHY
ROOT Hips
{
  OFFSET -0.589095 22.1471 2.58842
  CHANNELS 6 Xposition Yposition Zposition Zrotation Xrotation Yrotation
  JOINT BN_Bip01_Pelvis
  {
    OFFSET -3.49357 -5.29363 -0.000213444
    CHANNELS 6 Xposition Yposition Zposition Zrotation Xrotation Yrotation
    JOINT BN_leg_R_01
    {
      OFFSET 10.8127 -7.82778 -6.29737
      CHANNELS 6 Xposition Yposition Zposition Zrotation Xrotation Yrotation
      JOINT BN_leg_R_02
      {
        OFFSET 8.91071 0 0
        CHANNELS 6 Xposition Yposition Zposition Zrotation Xrotation Yrotation
        JOINT BN_leg_R_03
        {
          OFFSET 15.6024 0 0
          CHANNELS 6 Xposition Yposition Zposition Zrotation Xrotation Yrotation
          JOINT BN_leg_R_04
          {
            OFFSET 9.68174 0 0
            CHANNELS 6 Xposition Yposition Zposition Zrotation Xrotation Yrotation
            JOINT BN_leg_R_05
            {
              OFFSET 10.6982 0 0
              CHANNELS 6 Xposition Yposition Zposition Zrotation Xrotation Yrotation
              JOINT BN_Leg_R_05Nub
              {
                OFFSET 11.1504 0 0
                CHANNELS 6 Xposition Yposition Zposition Zrotation Xrotation Yrotation
                End Site
                {
                  OFFSET 0 0 0
                }
              }
            }
          }
        }
      }
    }
    JOINT BN_leg_R_06
    {
      OFFSET 6.51511 -7.99898 -4.29089
      CHANNELS 6 Xposition Yposition Zposition Zrotation Xrotation Yrotation
      JOINT BN_Leg_R_07
      {
        OFFSET 9.03709 0 0
        CHANNELS 6 Xposition Yposition Zposition Zrotation Xrotation Yrotation
        JOINT BN_Leg_R_08
        {
          OFFSET 18.7638 0 0
          CHANNELS 6 Xposition Yposition Zposition Zrotation Xrotation Yrotation
          JOINT BN_Leg_R_09
          {
            OFFSET 10.9666 0 0
            CHANNELS 6 Xposition Yposition Zposition Zrotation Xrotation Yrotation
            JOINT BN_Leg_R_10
            {
              OFFSET 10.8726 0 0
              CHANNELS 6 Xposition Yposition Zposition Zrotation Xrotation Yrotation
              JOINT BN_Leg_R_10Nub
              {
                OFFSET 11.2648 0 0
                CHANNELS 6 Xposition Yposition Zposition Zrotation Xrotation Yrotation
                End Site
                {
                  OFFSET 0 0 0
                }
              }
            }
          }
        }
      }
    }
    JOINT BN_Leg_R_11
    {
      OFFSET 2.71429 -8.18693 -0.209972
      CHANNELS 6 Xposition Yposition Zposition Zrotation Xrotation Yrotation
      JOINT BN_Leg_R_12
      {
        OFFSET 9.8713 0 0
        CHANNELS 6 Xposition Yposition Zposition Zrotation Xrotation Yrotation
        JOINT BN_Leg_R_13
        {
          OFFSET 21.8657 0 0
          CHANNELS 6 Xposition Yposition Zposition Zrotation Xrotation Yrotation
          JOINT BN_Leg_R_14
          {
            OFFSET 11.0011 0 0
            CHANNELS 6 Xposition Yposition Zposition Zrotation Xrotation Yrotation
            JOINT BN_Leg_R_15
            {
              OFFSET 12.8798 0 0
              CHANNELS 6 Xposition Yposition Zposition Zrotation Xrotation Yrotation
              JOINT BN_Leg_R_15Nub
              {
                OFFSET 13.0642 0 0
                CHANNELS 6 Xposition Yposition Zposition Zrotation Xrotation Yrotation
                End Site
                {
                  OFFSET 0 0 0
                }
              }
            }
          }
        }
      }
    }
    JOINT BN_Leg_L_11
    {
      OFFSET 2.7143 8.18692 -0.209982
      CHANNELS 6 Xposition Yposition Zposition Zrotation Xrotation Yrotation
      JOINT BN_Leg_L_12
      {
        OFFSET 9.87129 0 0
        CHANNELS 6 Xposition Yposition Zposition Zrotation Xrotation Yrotation
        JOINT BN_Leg_L_13
        {
          OFFSET 21.8657 0 0
          CHANNELS 6 Xposition Yposition Zposition Zrotation Xrotation Yrotation
          JOINT BN_Leg_L_14
          {
            OFFSET 11.0011 0 0
            CHANNELS 6 Xposition Yposition Zposition Zrotation Xrotation Yrotation
            JOINT BN_Leg_L_15
            {
              OFFSET 12.8798 0 0
              CHANNELS 6 Xposition Yposition Zposition Zrotation Xrotation Yrotation
              JOINT BN_Leg_L_15Nub
              {
                OFFSET 13.0642 0 0
                CHANNELS 6 Xposition Yposition Zposition Zrotation Xrotation Yrotation
                End Site
                {
                  OFFSET 0 0 0
                }
              }
            }
          }
        }
      }
    }
    JOINT BN_leg_L_06
    {
      OFFSET 6.51511 7.99896 -4.29091
      CHANNELS 6 Xposition Yposition Zposition Zrotation Xrotation Yrotation
      JOINT BN_Leg_L_07
      {
        OFFSET 9.03709 0 0
        CHANNELS 6 Xposition Yposition Zposition Zrotation Xrotation Yrotation
        JOINT BN_Leg_L_08
        {
          OFFSET 18.7638 0 0
          CHANNELS 6 Xposition Yposition Zposition Zrotation Xrotation Yrotation
          JOINT BN_Leg_L_09
          {
            OFFSET 10.9666 0 0
            CHANNELS 6 Xposition Yposition Zposition Zrotation Xrotation Yrotation
            JOINT BN_Leg_L_10
            {
              OFFSET 10.8726 0 0
              CHANNELS 6 Xposition Yposition Zposition Zrotation Xrotation Yrotation
              JOINT BN_Leg_L_10Nub
              {
                OFFSET 11.2649 0 0
                CHANNELS 6 Xposition Yposition Zposition Zrotation Xrotation Yrotation
                End Site
                {
                  OFFSET 0 0 0
                }
              }
            }
          }
        }
      }
    }
    JOINT BN_leg_L_01
    {
      OFFSET 10.8127 7.82776 -6.29737
      CHANNELS 6 Xposition Yposition Zposition Zrotation Xrotation Yrotation
      JOINT BN_leg_L_02
      {
        OFFSET 8.91072 0 0
        CHANNELS 6 Xposition Yposition Zposition Zrotation Xrotation Yrotation
        JOINT BN_leg_L_03
        {
          OFFSET 15.6024 0 0
          CHANNELS 6 Xposition Yposition Zposition Zrotation Xrotation Yrotation
          JOINT BN_leg_L_04
          {
            OFFSET 9.68174 0 0
            CHANNELS 6 Xposition Yposition Zposition Zrotation Xrotation Yrotation
            JOINT BN_leg_L_05
            {
              OFFSET 10.6982 0 0
              CHANNELS 6 Xposition Yposition Zposition Zrotation Xrotation Yrotation
              JOINT BN_Leg_L_05Nub
              {
                OFFSET 11.1504 0 0
                CHANNELS 6 Xposition Yposition Zposition Zrotation Xrotation Yrotation
                End Site
                {
                  OFFSET 0 0 0
                }
              }
            }
          }
        }
      }
    }
    JOINT BN_Eye_L_01
    {
      OFFSET 28.5502 2.54627 -3.93739
      CHANNELS 6 Xposition Yposition Zposition Zrotation Xrotation Yrotation
      JOINT BN_Eye_L_02
      {
        OFFSET 2.30267 0 0
        CHANNELS 6 Xposition Yposition Zposition Zrotation Xrotation Yrotation
        JOINT BN_Eye_L_03
        {
          OFFSET 5.31894 0 0
          CHANNELS 6 Xposition Yposition Zposition Zrotation Xrotation Yrotation
          JOINT BN_Eye_L_04
          {
            OFFSET 9.71244 0 0
            CHANNELS 6 Xposition Yposition Zposition Zrotation Xrotation Yrotation
            End Site
            {
              OFFSET 0 0 0
            }
          }
        }
      }
    }
    JOINT BN_Eye_R_01
    {
      OFFSET 28.5502 -2.54612 -3.93738
      CHANNELS 6 Xposition Yposition Zposition Zrotation Xrotation Yrotation
      JOINT BN_Eye_R_02
      {
        OFFSET 2.30267 0 0
        CHANNELS 6 Xposition Yposition Zposition Zrotation Xrotation Yrotation
        JOINT BN_Eye_R_03
        {
          OFFSET 5.31896 0 0
          CHANNELS 6 Xposition Yposition Zposition Zrotation Xrotation Yrotation
          JOINT BN_Eye_R_04
          {
            OFFSET 9.71244 0 0
            CHANNELS 6 Xposition Yposition Zposition Zrotation Xrotation Yrotation
            End Site
            {
              OFFSET 0 0 0
            }
          }
        }
      }
    }
    JOINT BN_Arm_L_01
    {
      OFFSET 15.9737 8.03546 -8.36195
      CHANNELS 6 Xposition Yposition Zposition Zrotation Xrotation Yrotation
      JOINT BN_Arm_L_02
      {
        OFFSET 16.8869 0 0
        CHANNELS 6 Xposition Yposition Zposition Zrotation Xrotation Yrotation
        JOINT BN_Arm_L_03
        {
          OFFSET 8.42975 0 0
          CHANNELS 6 Xposition Yposition Zposition Zrotation Xrotation Yrotation
          JOINT BN_Arm_L_04
          {
            OFFSET 7.53864 -0.0312023 2.09083
            CHANNELS 6 Xposition Yposition Zposition Zrotation Xrotation Yrotation
            End Site
            {
              OFFSET 0 0 0
            }
          }
        }
      }
    }
    JOINT BN_Arm_R_01
    {
      OFFSET 14.7806 -6.70232 -9.44366
      CHANNELS 6 Xposition Yposition Zposition Zrotation Xrotation Yrotation
      JOINT BN_Arm_R_02
      {
        OFFSET 19.9827 0 0
        CHANNELS 6 Xposition Yposition Zposition Zrotation Xrotation Yrotation
        JOINT BN_Arm_R_03
        {
          OFFSET 17.4553 0 0
          CHANNELS 6 Xposition Yposition Zposition Zrotation Xrotation Yrotation
          JOINT BN_Arm_R_04
          {
            OFFSET 13.3834 -2.22657 7.3982
            CHANNELS 6 Xposition Yposition Zposition Zrotation Xrotation Yrotation
            End Site
            {
              OFFSET 0 0 0
            }
          }
        }
      }
    }
  }
}
MOTION
Frames:	4
Frame Time:	0.0333333
-20.7244 22.6378 -0.219456 -0 -0.00379759 -0 -3.49325 -8.0258 0 -163.39 -84.4569 153.045 10.8127 -7.82778 -6.29736 -119.037 29.9131 44.0179 8.91072 -1.90735e-006 9.53674e-007 62.2641 0.0746794 1.32768 15.6024 1.43051e-006 -9.53674e-007 -81.002 6.40727 27.8343 9.68174 -3.8147e-006 0 -15.8598 0.598458 -9.51446 10.6982 0 -2.86102e-006 -29.013 4.11553 0.739982 11.1504 3.8147e-006 -1.90735e-006 2.23771e-007 9.05579e-006 1.44972e-006 6.5151 -7.99897 -4.29089 -151.429 17.2348 24.6082 9.03709 -2.86102e-006 -1.90735e-006 103.894 -2.42045 -2.82753 18.7638 -9.53675e-007 0 -87.6132 8.60682 23.3355 10.9665 -3.8147e-006 3.8147e-006 -20.6561 -0.579887 -0.933947 10.8726 3.8147e-006 0 -19.0245 -0.0165519 -2.12335 11.2648 3.8147e-006 1.90735e-006 -1.98918e-006 -1.00583e-008 -4.0119e-008 2.71429 -8.18693 -0.209967 -137.012 32.892 -3.68144 9.87129 -1.90735e-006 0 62.9761 2.25678 -0.500579 21.8657 2.86102e-006 -1.90735e-006 -61.8222 1.51715 4.78169 11.0011 3.8147e-006 3.55271e-015 -17.4722 -0.323998 -0.79282 12.8798 -3.81469e-006 -7.62939e-006 -26.449 -0.0312201 0.0716987 13.0642 3.81469e-006 3.8147e-006 3.67635e-007 9.99393e-006 2.30396e-006 2.7143 8.18692 -0.209976 114.31 -35.6461 -25.2407 9.8713 -9.53674e-007 -1.90735e-006 -46.0438 -2.37894 -0.330737 21.8657 -9.53674e-007 3.8147e-006 50.801 -1.95714 5.66215 11.0011 7.10543e-015 3.8147e-006 21.8709 0.348845 -0.904455 12.8798 3.8147e-006 1.90735e-006 31.8188 0.0307209 0.0312504 13.0642 0 1.90735e-006 5.15166e-007 1.8987e-006 3.73471e-007 6.51512 7.99896 -4.2909 109.053 -25.8424 11.4887 9.03709 9.53674e-007 -1.90735e-006 -72.1689 1.78514 -2.74611 18.7638 -2.86102e-006 0 80.2117 -13.5984 21.1937 10.9666 0 -3.55271e-015 34.3004 0.429959 -1.85658 10.8726 3.81469e-006 0 32.5081 0.0147373 -3.06095 11.2648 3.81469e-006 1.90735e-006 2.01991e-007 7.80031e-008 9.79392e-009 10.8127 7.82776 -6.29737 92.576 -37.2453 45.2329 8.91072 9.53674e-007 2.86102e-006 -42.5896 0.32046 0.766751 15.6024 2.86102e-006 9.53674e-007 58.505 -5.11018 19.1834 9.68174 1.90735e-006 -1.77636e-015 23.8123 0.078985 -11.6487 10.6982 0 -3.55271e-015 38.8145 -4.11631 -0.44144 11.1504 -3.8147e-006 -9.53674e-007 4.72697e-008 4.01501e-006 -3.31285e-009 28.5502 2.54627 -3.93738 89.995 -40.8534 50.3814 2.30267 -1.90735e-006 0 -41.2041 0.980072 -6.44296 5.31895 3.55271e-015 2.38419e-007 -12.8811 2.21495 -7.45755 9.71243 3.55271e-015 8.88179e-016 -19.1236 -0.00194511 3.10673 28.5502 -2.54612 -3.93737 89.9968 -39.1541 129.609 2.30267 -1.90735e-006 4.76837e-007 -45.2354 -1.36562 6.09542 5.31895 -3.55271e-015 -8.88179e-016 -12.0797 0.0763537 5.9293 9.71243 9.53675e-007 -5.36442e-007 -22.5615 -1.21319 0.20021 15.9737 8.03546 -8.36195 56.5593 26.2117 3.73449 16.8869 -2.38419e-006 -1.90735e-006 -51.5045 4.95735 -14.8467 8.42975 0 -9.53675e-007 -25.5911 -3.64236e-006 1.15565e-005 7.53865 -0.031208 2.09083 -7.43618 -4.90694 -12.3517 14.7806 -6.70232 -9.44365 -41.6457 -48.8016 14.5155 19.9827 1.90735e-006 -3.8147e-006 36.1933 1.1859 -25.3426 17.4553 3.8147e-006 9.53674e-007 25.0463 -3.83222 -0.105507 13.3835 -2.22654 7.39821 8.80083 1.66465 -20.5323 
-21.0834 22.7275 -0.179797 -0.192831 0.240631 -0.126658 -3.49325 -8.0258 -2.77556e-017 -163.389 -84.4569 153.045 10.8127 -7.82778 -6.29736 -118.417 29.9139 44.5304 8.91072 -1.90735e-006 9.53674e-007 61.7731 0.0616513 1.31572 15.6024 1.43051e-006 -9.53674e-007 -80.123 6.32214 27.7413 9.68174 -3.8147e-006 1.77636e-015 -15.8451 0.596864 -9.51088 10.6982 0 -2.86102e-006 -28.9979 4.11477 0.742916 11.1504 3.8147e-006 -1.90735e-006 2.23771e-007 9.05579e-006 1.44972e-006 6.5151 -7.99897 -4.29089 -150.752 16.6665 25.1863 9.03709 -2.86102e-006 -1.90735e-006 104.126 -2.42338 -2.82051 18.7638 -9.53675e-007 0 -87.6736 8.40399 22.9174 10.9665 -3.8147e-006 3.8147e-006 -20.4687 -0.579863 -0.921888 10.8726 3.8147e-006 -3.55271e-015 -18.8411 -0.0153046 -2.10817 11.2648 3.8147e-006 1.90735e-006 -1.98918e-006 -1.00583e-008 -4.0119e-008 2.71429 -8.18693 -0.209967 -137.32 32.7508 -3.18899 9.87129 -1.90735e-006 3.55271e-015 63.8618 2.2505 -0.508142 21.8657 2.86102e-006 -1.90735e-006 -62.3838 1.65952 5.03814 11.0011 3.8147e-006 -3.55271e-015 -17.5017 -0.323623 -0.792882 12.8798 -3.81469e-006 -7.62939e-006 -26.4864 -0.0312665 0.0716776 13.0642 3.81469e-006 3.8147e-006 3.67635e-007 9.99393e-006 2.30396e-006 2.7143 8.18692 -0.209976 115.519 -35.7828 -24.1461 9.8713 -9.53674e-007 -1.90735e-006 -47.3566 -2.37074 -0.385138 21.8657 -9.53674e-007 3.8147e-006 52.0508 -1.93601 5.58473 11.0011 -2.13163e-014 3.8147e-006 21.5152 0.356027 -0.898282 12.8798 3.8147e-006 1.90735e-006 31.3889 0.0322368 0.0343504 13.0642 4.26326e-014 1.90735e-006 5.15166e-007 1.8987e-006 3.73471e-007 6.51512 7.99896 -4.2909 109.181 -25.4879 12.0514 9.03709 9.53674e-007 -1.90735e-006 -71.9739 1.78123 -2.74408 18.7638 -2.86102e-006 -1.42109e-014 79.865 -13.6372 21.3487 10.9666 1.42108e-014 7.10543e-015 34.2105 0.429107 -1.85173 10.8726 3.81469e-006 0 32.4187 0.0156758 -3.05315 11.2648 3.81469e-006 1.90735e-006 2.01991e-007 7.80031e-008 9.79392e-009 10.8127 7.82776 -6.29737 92.2672 -37.5452 45.377 8.91072 9.53674e-007 2.86102e-006 -40.6522 0.343978 0.711849 15.6024 2.86102e-006 9.53674e-007 55.9738 -5.31184 19.3952 9.68174 1.90735e-006 0 24.383 0.128445 -11.7972 10.6982 7.10543e-015 0 39.5063 -4.11689 -0.527503 11.1504 -3.8147e-006 -9.53674e-007 4.72697e-008 4.01501e-006 -3.31284e-009 28.5502 2.54627 -3.93738 89.995 -40.8534 50.3814 2.30267 -1.90735e-006 -3.9968e-015 -40.0548 0.945559 -5.72026 5.31895 -3.55271e-015 2.38419e-007 -12.659 2.22323 -7.24615 9.71243 0 7.99361e-015 -19.1424 0.289602 3.07609 28.5502 -2.54612 -3.93737 89.9968 -39.1541 129.609 2.30267 -1.90735e-006 4.76837e-007 -43.7919 -1.44359 4.31054 5.31895 -3.55271e-015 -5.32907e-015 -11.9275 0.0838401 5.8996 9.71243 9.53675e-007 -5.36442e-007 -23.2887 -1.52708 0.397855 15.9737 8.03546 -8.36195 56.3649 25.9698 3.76053 16.8869 -2.38419e-006 -1.90735e-006 -50.8864 5.01783 -14.8459 8.42975 -1.06581e-014 -9.53675e-007 -25.2927 0.0253302 0.0352668 7.53865 -0.031208 2.09083 -7.44115 -4.93168 -12.1071 14.7806 -6.70232 -9.44365 -42.0731 -49.2145 13.8861 19.9827 1.90735e-006 -3.8147e-006 36.4622 1.44593 -25.3004 17.4553 3.8147e-006 9.53674e-007 25.7322 -3.5747 -0.385184 13.3835 -2.22654 7.39821 8.79806 1.48353 -22.4192 
-21.7933 22.9601 -0.0736574 -0.708589 0.886074 -0.469338 -3.49325 -8.0258 -5.55112e-017 -163.389 -84.4569 153.045 10.8127 -7.82778 -6.29736 -116.949 30.0082 45.5425 8.91072 -1.90735e-006 9.53674e-007 60.8071 0.0347828 1.28931 15.6024 1.43051e-006 -9.53674e-007 -78.3821 6.1499 27.566 9.68174 -3.8147e-006 -3.55271e-015 -15.7848 0.603702 -9.49553 10.6982 0 -2.86102e-006 -28.9195 4.11603 0.751039 11.1504 3.8147e-006 -1.90735e-006 2.23771e-007 9.05579e-006 1.44972e-006 6.5151 -7.99897 -4.29089 -149.207 15.5069 26.3752 9.03709 -2.86102e-006 -1.90735e-006 104.538 -2.43141 -2.8145 18.7638 -9.53675e-007 3.55271e-015 -87.5892 8.05161 22.0925 10.9665 -3.8147e-006 3.8147e-006 -20.2118 -0.584967 -0.903541 10.8726 3.8147e-006 1.77636e-014 -18.5883 -0.0164768 -2.0865 11.2648 3.8147e-006 1.90735e-006 -1.98918e-006 -1.00583e-008 -4.0119e-008 2.71429 -8.18693 -0.209967 -137.959 32.4998 -2.27245 9.87129 -1.90735e-006 -1.06581e-014 65.6909 2.23216 -0.521094 21.8657 2.86102e-006 -1.90735e-006 -63.3641 2.07526 5.88123 11.0011 3.8147e-006 1.77636e-014 -17.6243 -0.321231 -0.79576 12.8798 -3.8147e-006 -7.62939e-006 -26.6394 -0.0314549 0.0715882 13.0642 3.81469e-006 3.8147e-006 3.67635e-007 9.99393e-006 2.30396e-006 2.7143 8.18692 -0.209976 118.274 -35.9599 -21.7835 9.8713 -9.53674e-007 -1.90735e-006 -49.7904 -2.35227 -0.485434 21.8657 -9.53674e-007 3.8147e-006 54.3312 -1.93078 5.52865 11.0011 -7.81597e-014 3.8147e-006 20.8248 0.369388 -0.887186 12.8798 3.8147e-006 1.90735e-006 30.5517 0.0333948 0.0376358 13.0642 0 1.90735e-006 5.15166e-007 1.8987e-006 3.73471e-007 6.51512 7.99896 -4.2909 109.688 -24.7835 13.2654 9.03709 9.53674e-007 -1.90735e-006 -71.5122 1.77049 -2.73392 18.7638 -2.86102e-006 1.06581e-014 79.0476 -13.7398 21.7326 10.9666 0 1.42109e-014 34.0112 0.433064 -1.83672 10.8726 3.81469e-006 -3.55271e-015 32.2203 0.0162271 -3.04455 11.2648 3.81469e-006 1.90735e-006 2.01991e-007 7.80031e-008 9.79392e-009 10.8127 7.82776 -6.29737 91.5976 -38.3439 45.4948 8.91072 9.53674e-007 2.86102e-006 -36.2067 0.387194 0.593852 15.6024 2.86102e-006 9.53674e-007 50.3757 -5.85459 19.9262 9.68174 1.90735e-006 3.55271e-015 25.6323 0.234258 -12.1155 10.6982 -1.77636e-014 1.77636e-015 41.0205 -4.1148 -0.716774 11.1504 -3.8147e-006 -9.53674e-007 4.72697e-008 4.01501e-006 -3.31284e-009 28.5502 2.54627 -3.93738 89.995 -40.8534 50.3814 2.30267 -1.90735e-006 -2.66454e-015 -37.4038 0.869865 -4.05229 5.31895 0 2.38419e-007 -12.1164 2.24136 -6.73802 9.71243 -3.55271e-015 0 -19.1919 0.967845 3.005 28.5502 -2.54612 -3.93737 89.9968 -39.1541 129.609 2.30267 -1.90735e-006 4.76837e-007 -40.487 -1.59094 0.0991488 5.31895 3.55271e-015 8.88179e-016 -11.8267 0.106766 5.76193 9.71243 9.53675e-007 -5.36442e-007 -24.8751 -2.2301 0.790416 15.9737 8.03546 -8.36195 56.0424 25.7375 3.84669 16.8869 -2.38419e-006 -1.90735e-006 -50.1733 5.08688 -14.8361 8.42975 -1.42109e-014 -9.53675e-007 -24.8423 0.10079 0.143954 7.53865 -0.031208 2.09083 -7.44556 -4.96167 -11.4322 14.7806 -6.70232 -9.44365 -43.2961 -50.2819 12.1438 19.9827 1.90735e-006 -3.8147e-006 37.1759 2.0825 -25.1786 17.4553 3.8147e-006 9.53674e-007 27.5639 -2.90271 -0.807906 13.3835 -2.22654 7.39821 8.74921 1.05815 -25.5082 
-22.8016 23.3055 0.0891616 -1.48255 1.85881 -1.00489 -3.49325 -8.0258 -8.32667e-017 -163.39 -84.4569 153.045 10.8127 -7.82778 -6.29736 -114.693 30.2508 46.9076 8.91072 -1.90735e-006 9.53674e-007 59.1959 -0.00926069 1.24406 15.6024 1.43051e-006 -9.53674e-007 -75.5895 5.97502 27.3491 9.68174 -3.8147e-006 -1.95399e-014 -15.8241 0.601463 -9.50672 10.6982 0 -2.86102e-006 -28.9699 4.11746 0.746063 11.1504 3.8147e-006 -1.90735e-006 2.23771e-007 9.05579e-006 1.44972e-006 6.5151 -7.99897 -4.29089 -146.758 13.8536 28.0719 9.03709 -2.86102e-006 -1.90735e-006 105.049 -2.43901 -2.80429 18.7638 -9.53675e-007 3.55271e-015 -87.5113 7.50982 20.8654 10.9665 -3.8147e-006 3.8147e-006 -19.7535 -0.586479 -0.872437 10.8726 3.8147e-006 3.55271e-014 -18.1382 -0.015817 -2.05313 11.2648 3.8147e-006 1.90735e-006 -1.98918e-006 -1.00584e-008 -4.0119e-008 2.71429 -8.18693 -0.209967 -138.793 32.1241 -1.05823 9.87129 -1.90735e-006 -1.77636e-014 68.1943 2.20782 -0.54442 21.8657 2.86102e-006 -1.90735e-006 -64.4922 2.75264 7.24751 11.0011 3.8147e-006 6.75015e-014 -17.9181 -0.316684 -0.798826 12.8798 -3.8147e-006 -7.62939e-006 -26.9953 -0.0303485 0.0683484 13.0642 3.81469e-006 3.8147e-006 3.67635e-007 9.99393e-006 2.30396e-006 2.7143 8.18692 -0.209976 122.144 -35.9897 -18.4521 9.8713 -9.53674e-007 -1.90735e-006 -52.9013 -2.32248 -0.61234 21.8657 -9.53674e-007 3.8147e-006 57.1972 -1.94379 5.4866 11.0011 -1.13687e-013 3.8147e-006 19.9544 0.386235 -0.872074 12.8798 3.8147e-006 1.90735e-006 29.4836 0.0372031 0.0462385 13.0642 0 1.90735e-006 5.15166e-007 1.8987e-006 3.73471e-007 6.51512 7.99896 -4.2909 110.374 -23.8324 14.9404 9.03709 9.53674e-007 -1.90735e-006 -70.6737 1.75339 -2.71467 18.7638 -2.86102e-006 2.84217e-014 77.6559 -13.9048 22.2813 10.9666 -7.10542e-015 -7.10543e-015 33.7771 0.437538 -1.82142 10.8726 3.81469e-006 1.42109e-014 31.9872 0.0161964 -3.02816 11.2648 3.81469e-006 1.90735e-006 2.01991e-007 7.80031e-008 9.79392e-009 10.8127 7.82776 -6.29737 90.3613 -38.5922 44.4973 8.91072 9.53674e-007 2.86102e-006 -36.9286 0.377908 0.612867 15.6024 2.86102e-006 9.53674e-007 51.369 -6.60161 21.1047 9.68174 1.90735e-006 -1.77636e-015 25.9548 0.26122 -12.1952 10.6982 -1.42109e-014 1.06581e-014 41.4077 -4.11532 -0.767163 11.1504 -3.8147e-006 -9.53674e-007 4.72697e-008 4.01501e-006 -3.31285e-009 28.5502 2.54627 -3.93738 89.995 -40.8534 50.3814 2.30267 -1.90735e-006 -3.55271e-015 -34.2006 0.774468 -2.04143 5.31895 3.55271e-015 2.38419e-007 -11.3706 2.26356 -6.08042 9.71243 0 7.10543e-015 -19.2451 1.77937 2.91997 28.5502 -2.54612 -3.93737 89.9968 -39.1541 129.609 2.30267 -1.90735e-006 4.76837e-007 -36.5402 -1.75969 -5.18622 5.31895 -1.06581e-014 -5.32907e-015 -11.6543 0.149905 5.42389 9.71243 9.53675e-007 -5.36442e-007 -26.7576 -3.06794 1.24441 15.9737 8.03546 -8.36195 55.602 25.5093 3.98541 16.8869 -2.38419e-006 -1.90735e-006 -49.3607 5.16566 -14.8262 8.42975 7.10543e-015 -9.53675e-007 -24.2452 0.222607 0.312509 7.53865 -0.031208 2.09083 -7.45178 -4.99493 -10.3568 14.7806 -6.70232 -9.44365 -45.3913 -51.8339 9.30111 19.9827 1.90735e-006 -3.8147e-006 38.3001 3.02326 -24.9567 17.4553 3.8147e-006 9.53674e-007 30.3075 -1.90289 -1.33997 13.3835 -2.22654 7.39821 8.66536 0.511738 -27.1565 
